<svg width="88" height="88" viewBox="0 0 88 88" fill="none" xmlns="http://www.w3.org/2000/svg">
<rect width="88" height="88" rx="8" fill="#207FEE"/>
<path d="M64.9081 22.6842C67.6806 25.4567 69.8799 28.7481 71.3803 32.3706C72.8808 35.993 73.6531 39.8755 73.6531 43.7964C73.6531 47.7173 72.8808 51.5998 71.3803 55.2222C69.8799 58.8447 67.6806 62.1361 64.9081 64.9086C62.1356 67.6811 58.8442 69.8803 55.2217 71.3808C51.5993 72.8813 47.7168 73.6535 43.7959 73.6535C39.875 73.6535 35.9925 72.8813 32.3701 71.3808C28.7476 69.8803 25.4562 67.6811 22.6837 64.9086L33.2398 54.3525C34.6261 55.7387 36.2718 56.8384 38.083 57.5886C39.8942 58.3388 41.8355 58.725 43.7959 58.725C45.7564 58.725 47.6976 58.3388 49.5088 57.5886C51.32 56.8384 52.9658 55.7387 54.352 54.3525C55.7383 52.9662 56.8379 51.3205 57.5881 49.5093C58.3383 47.6981 58.7245 45.7568 58.7245 43.7964C58.7245 41.8359 58.3383 39.8947 57.5881 38.0835C56.8379 36.2723 55.7383 34.6265 54.352 33.2403L64.9081 22.6842Z" fill="white"/>
<path d="M22.6839 64.9083C17.0846 59.309 13.939 51.7148 13.939 43.7962C13.939 35.8776 17.0846 28.2833 22.6839 22.684C28.2832 17.0847 35.8775 13.939 43.7961 13.939C51.7147 13.939 59.309 17.0847 64.9083 22.684L54.3522 33.2401C51.5526 30.4404 47.7554 28.8676 43.7961 28.8676C39.8368 28.8676 36.0397 30.4404 33.24 33.2401C30.4404 36.0397 28.8676 39.8369 28.8676 43.7962C28.8676 47.7555 30.4404 51.5526 33.24 54.3522L22.6839 64.9083Z" fill="#9BC9FF"/>
</svg>
