<svg width="200" height="200" viewBox="0 0 246 246" fill="none" xmlns="http://www.w3.org/2000/svg">
<g clip-path="url(#clip0_6_1483)">
<path d="M126.351 213.273C62.0341 235.973 5.23642 146.418 63.0877 108.298C117.874 72.2365 136.312 13.2837 177.641 25.5915C235.061 42.6882 214.564 80.4736 218.156 141.15C222.179 209.633 179.94 194.404 126.351 213.273Z" fill="#FCEED4"/>
<path d="M158.054 228.429C205.239 228.429 243.49 226.457 243.49 224.023C243.49 221.59 205.239 219.618 158.054 219.618C110.869 219.618 72.6179 221.59 72.6179 224.023C72.6179 226.457 110.869 228.429 158.054 228.429Z" fill="#E1DFF4"/>
<path d="M212.553 48.5309H218.252C224.525 48.5309 229.65 53.6551 229.65 59.9287C229.65 66.2023 224.525 71.3266 218.252 71.3266H212.553" fill="#48A9F8"/>
<path d="M212.553 71.3266C218.848 71.3266 223.951 66.2236 223.951 59.9287C223.951 53.6338 218.848 48.5309 212.553 48.5309C206.258 48.5309 201.155 53.6338 201.155 59.9287C201.155 66.2236 206.258 71.3266 212.553 71.3266Z" fill="white"/>
<path d="M218.252 46.6152H212.553C205.226 46.6152 199.239 52.6015 199.239 59.9287C199.239 67.2559 205.226 73.2421 212.553 73.2421H218.252C225.579 73.2421 231.565 67.2559 231.565 59.9287C231.565 52.6015 225.579 46.6152 218.252 46.6152ZM203.071 59.9287C203.071 54.7087 207.333 50.4464 212.553 50.4464C217.773 50.4464 222.035 54.7087 222.035 59.9287C222.035 65.1487 217.773 69.4109 212.553 69.4109C207.333 69.4109 203.071 65.1487 203.071 59.9287ZM222.993 68.1179C224.765 65.8671 225.866 62.9937 225.866 59.9287C225.866 56.8637 224.813 53.9903 222.993 51.7395C225.818 53.3677 227.734 56.4327 227.734 59.9287C227.734 63.4247 225.818 66.4896 222.993 68.1179Z" fill="#40189D"/>
<path d="M167.44 2.31686H173.139C179.413 2.31686 184.537 7.44111 184.537 13.7147C184.537 19.9883 179.413 25.1126 173.139 25.1126H167.44" fill="#48A9F8"/>
<path d="M167.44 25.0647C173.735 25.0647 178.838 19.9617 178.838 13.6668C178.838 7.37197 173.735 2.26898 167.44 2.26898C161.145 2.26898 156.042 7.37197 156.042 13.6668C156.042 19.9617 161.145 25.0647 167.44 25.0647Z" fill="white"/>
<path d="M173.139 0.40126H167.44C160.113 0.40126 154.127 6.38753 154.127 13.7147C154.127 21.0419 160.113 27.0282 167.44 27.0282H173.139C180.466 27.0282 186.453 21.0419 186.453 13.7147C186.453 6.38753 180.466 0.40126 173.139 0.40126ZM157.958 13.6668C157.958 8.4468 162.22 4.18458 167.44 4.18458C172.66 4.18458 176.923 8.4468 176.923 13.6668C176.923 18.8869 172.66 23.1491 167.44 23.1491C162.22 23.1491 157.958 18.9347 157.958 13.6668ZM177.88 21.9039C179.652 19.6531 180.754 16.7797 180.754 13.7147C180.754 10.6019 179.7 7.77634 177.88 5.5255C180.706 7.15377 182.621 10.2187 182.621 13.7147C182.621 17.2107 180.706 20.2757 177.88 21.9039Z" fill="#40189D"/>
<path d="M86.506 21.1377H92.7796C127.069 21.1377 154.893 48.9619 154.893 83.2512C154.893 117.541 127.117 145.365 92.7796 145.365H86.1707L86.506 21.1377Z" fill="#814AFF"/>
<path d="M23.3868 83.2512C23.3868 96.6604 27.649 109.112 34.8804 119.265L85.5003 83.2512H23.3868Z" fill="#48A9F8"/>
<path d="M85.5003 21.1377V83.2512L34.9283 119.265C46.1825 135.068 64.6681 145.365 85.5482 145.365C119.838 145.365 147.662 117.541 147.662 83.2512C147.614 48.9619 119.79 21.1377 85.5003 21.1377Z" fill="#B2D8EA"/>
<path d="M85.5003 147.232C64.8596 147.232 45.3684 137.175 33.3479 120.318C33.0606 119.887 32.9169 119.408 33.0127 118.881C33.1085 118.403 33.3958 117.924 33.7789 117.636L83.5847 82.1976V21.1377C83.5847 20.0841 84.4467 19.2221 85.5003 19.2221C120.795 19.2221 149.482 47.9083 149.482 83.2033C149.482 118.498 120.795 147.232 85.5003 147.232ZM37.5623 119.696C48.9122 134.589 66.6795 143.449 85.5003 143.449C118.688 143.449 145.698 116.439 145.698 83.2512C145.698 50.6859 119.694 24.1069 87.4159 23.1012V83.2512C87.4159 83.8738 87.1286 84.4485 86.6018 84.7837L37.5623 119.696Z" fill="#40189D"/>
<path d="M85.5003 83.2512L34.9283 119.265C46.1825 135.068 64.6681 145.365 85.5482 145.365C119.838 145.365 147.662 117.541 147.662 83.2512" fill="#B2D8EA"/>
<path d="M147.614 83.2512C147.614 48.9619 119.838 21.1377 85.5003 21.1377V83.2512H147.614Z" fill="white"/>
<path d="M92.7796 19.27C92.7796 19.27 85.8355 19.27 85.5003 19.27C84.4467 19.27 83.5847 20.132 83.5847 21.1856V81.3835H23.3868C22.3332 81.3835 21.4712 82.2455 21.4712 83.2991C21.4712 96.7083 25.5897 109.543 33.3 120.414C45.3205 137.271 64.8117 147.328 85.4524 147.328C85.9792 147.328 92.7317 147.328 92.7317 147.328C109.828 147.328 125.872 140.671 137.988 128.603C150.056 116.535 156.713 100.444 156.713 83.347C156.761 47.9562 128.027 19.27 92.7796 19.27ZM87.4159 81.3356V23.1012C119.119 24.1069 144.693 49.6802 145.698 81.3835H87.4159V81.3356ZM79.5619 85.1668L35.3593 116.583C29.1336 107.244 25.6855 96.421 25.3024 85.1668H79.5619ZM37.5623 119.696L86.075 85.1668H145.65C144.645 117.493 118.066 143.449 85.5003 143.449C66.7274 143.449 48.9601 134.589 37.5623 119.696ZM135.306 125.826C131.092 130.04 126.303 133.584 121.178 136.361C138.227 124.868 149.482 105.376 149.482 83.2991C149.482 61.3654 138.371 41.9699 121.466 30.4284C140.191 40.629 152.93 60.5034 152.93 83.2991C152.977 99.3423 146.704 114.428 135.306 125.826Z" fill="#40189D"/>
<path d="M3.65605 69.6504C3.65605 35.3611 31.4802 7.5369 65.7696 7.5369V69.6504H3.65605Z" fill="#FCEED4"/>
<path d="M73.7672 7.39322H65.4822V69.6983H73.7672V7.39322Z" fill="#814AFF"/>
<path d="M73.7672 71.566C74.8208 71.566 75.6828 70.704 75.6828 69.6504V7.39322C75.6828 6.33964 74.8208 5.47762 73.7672 5.47762H65.4822C30.714 6.0523 1.74045 34.7385 1.74045 69.6504C1.74045 70.704 2.60247 71.566 3.65605 71.566H73.7672ZM63.5666 9.50039V67.7348H5.57166C6.52946 36.1752 32.007 10.6497 63.5666 9.50039ZM71.8995 67.7348H67.6373V9.26094H71.8995V67.7348Z" fill="#40189D"/>
<path d="M177.785 75.3972H122.28V86.5077H177.785V75.3972Z" fill="#E1E1E1"/>
<path d="M84.5425 221.797H231.469C237.599 221.797 242.532 216.865 242.532 210.735V115.481C242.532 109.351 237.599 104.419 231.469 104.419H84.5425V221.797Z" fill="#814AFF"/>
<path d="M87.5117 221.797H218.874C225.004 221.797 229.937 216.865 229.937 210.735V115.481C229.937 109.351 225.004 104.419 218.874 104.419H82.9621C76.8322 104.419 71.8995 109.351 71.8995 115.481V206.185C71.8995 214.805 78.8915 221.797 87.5117 221.797Z" fill="white"/>
<path d="M218.874 104.419H203.597L86.2665 221.749C86.6976 221.797 87.0807 221.797 87.5117 221.797H218.874C225.004 221.797 229.937 216.865 229.937 210.735V115.481C229.937 109.351 224.956 104.419 218.874 104.419Z" fill="#CFDDF7"/>
<path d="M82.9621 221.797H218.826C224.956 221.797 229.889 216.865 229.889 210.735V140.528H71.8995V210.735C71.8995 216.817 76.8801 221.797 82.9621 221.797Z" fill="#D7ECF9"/>
<path d="M86.2665 221.749C86.6976 221.797 87.0807 221.797 87.5117 221.797H218.874C219.257 221.797 219.641 221.797 220.024 221.749C221.125 221.654 222.227 221.366 223.184 220.935C223.855 220.648 224.477 220.313 225.052 219.93C225.627 219.547 226.202 219.068 226.68 218.589C227.064 218.206 227.399 217.822 227.734 217.391C227.83 217.248 227.926 217.104 228.021 216.96C228.309 216.529 228.596 216.051 228.835 215.572C228.931 215.428 228.979 215.236 229.075 215.093C229.65 213.752 229.937 212.315 229.937 210.783V140.528H167.488L86.2665 221.749Z" fill="#BCD5E2"/>
<path d="M147.757 221.797H218.874C225.004 221.797 229.937 216.865 229.937 210.735V140.528H147.757V221.797Z" fill="#E1F0FA"/>
<path d="M147.757 160.259V221.797H218.874C219.257 221.797 219.641 221.797 220.024 221.749C221.125 221.654 222.227 221.366 223.184 220.935C223.855 220.648 224.477 220.313 225.052 219.93C225.627 219.547 226.202 219.068 226.68 218.589C227.064 218.206 227.399 217.822 227.734 217.391C227.83 217.248 227.926 217.104 228.021 216.96C228.309 216.529 228.596 216.051 228.835 215.572C228.931 215.428 228.979 215.236 229.075 215.093C229.65 213.752 229.937 212.315 229.937 210.783V140.528H167.488L147.757 160.259Z" fill="#BCD5E2"/>
<path d="M231.517 102.503H82.9621C75.8265 102.503 69.9839 108.298 69.9839 115.481V210.735C69.9839 217.87 75.7786 223.713 82.9621 223.713H231.469C238.605 223.713 244.448 217.918 244.448 210.735V115.481C244.448 108.346 238.653 102.503 231.517 102.503ZM82.9621 106.286H218.826C223.855 106.286 227.973 110.405 227.973 115.433V138.612H73.7672V115.433C73.8151 110.405 77.9336 106.286 82.9621 106.286ZM218.874 219.882H149.673V142.443H228.021V210.735C228.021 215.763 223.903 219.882 218.874 219.882ZM73.8151 209.633V142.443H145.842V219.93H84.0636C78.4125 219.882 73.8151 215.284 73.8151 209.633ZM240.664 210.735C240.664 215.763 236.546 219.882 231.517 219.882H228.021C230.368 217.535 231.805 214.279 231.805 210.735V115.481C231.805 111.889 230.368 108.681 228.021 106.334H231.517C236.546 106.334 240.664 110.453 240.664 115.481V210.735Z" fill="#40189D"/>
<path d="M188.847 221.797H177.785V75.3972L188.847 88.7107V221.797Z" fill="white"/>
<path d="M122.28 221.797H111.169V88.7107L122.28 75.3972V221.797Z" fill="white"/>
<path d="M190.332 87.5134L179.221 74.2C178.838 73.769 178.311 73.5295 177.785 73.5295H122.28C121.753 73.5295 121.226 73.769 120.843 74.2L109.733 87.5134C109.445 87.8486 109.302 88.2797 109.302 88.7107V221.797C109.302 222.851 110.164 223.713 111.217 223.713H122.328C123.381 223.713 124.243 222.851 124.243 221.797V88.4233H175.965V221.797C175.965 222.851 176.827 223.713 177.88 223.713H188.991C190.044 223.713 190.906 222.851 190.906 221.797V88.7107C190.763 88.2797 190.619 87.8486 190.332 87.5134ZM120.364 219.882H113.085V89.3811L120.364 80.6172V219.882ZM124.148 84.5921V77.3128H175.869V84.5921H124.148ZM186.979 219.882H179.7V80.6651L186.979 89.429V219.882Z" fill="#40189D"/>
</g>
<defs>
<clipPath id="clip0_6_1483">
<rect width="245.197" height="245.197" fill="white" transform="translate(0.4953 0.40126)"/>
</clipPath>
</defs>
</svg>
