<svg enable-background="new 0 0 512 512" height="240" viewBox="0 0 512 512" width="240" xmlns="http://www.w3.org/2000/svg"><g><path d="m252.311.831h-120.791c-8.832 0-15.992 7.16-15.992 15.992v69.362c0 8.832 7.16 15.992 15.992 15.992h.782c3.342 0 6.052 2.709 6.052 6.052v20.246c0 3.174 3.69 4.919 6.144 2.906l33.925-27.831c1.082-.888 2.439-1.373 3.838-1.373h70.05c8.832 0 15.992-7.16 15.992-15.992v-69.362c0-8.832-7.16-15.992-15.992-15.992z" fill="#f7d4ad"/><path d="m254.921 51.999h120.791c8.832 0 15.992 7.16 15.992 15.992v72.11c0 8.832-7.16 15.992-15.992 15.992h-.782c-3.342 0-6.052 2.709-6.052 6.052v20.246c0 3.174-3.69 4.919-6.144 2.906l-33.925-27.831c-1.082-.888-2.439-1.373-3.838-1.373h-70.05c-8.832 0-15.992-7.16-15.992-15.992v-72.11c0-8.832 7.16-15.992 15.992-15.992z" fill="#ecbd83"/><g fill="#e2a876"><path d="m231.515 25.371h-85.181c-4.267 0-7.726 3.459-7.726 7.726s3.459 7.726 7.726 7.726h85.181c4.267 0 7.726-3.459 7.726-7.726s-3.459-7.726-7.726-7.726z"/><path d="m201.973 58.81h-55.639c-4.267 0-7.726 3.459-7.726 7.726s3.459 7.726 7.726 7.726h55.639c4.267 0 7.726-3.459 7.726-7.726s-3.459-7.726-7.726-7.726z"/><path d="m356.402 78.944h-85.182c-4.267 0-7.726 3.459-7.726 7.726s3.459 7.726 7.726 7.726h85.182c4.267 0 7.726-3.459 7.726-7.726s-3.459-7.726-7.726-7.726z"/><path d="m326.86 112.383h-55.64c-4.267 0-7.726 3.459-7.726 7.726s3.459 7.726 7.726 7.726h55.639c4.267 0 7.726-3.459 7.726-7.726s-3.458-7.726-7.725-7.726z"/></g><path d="m397.311 310.466h-285.939c-10.725 0-19.419-8.694-19.419-19.419v-9.229h324.777v9.229c0 10.724-8.694 19.419-19.419 19.419z" fill="#7c5757"/><g fill="#dad8db"><path d="m101.577 390.637c-.892-4.172-4.996-6.833-9.172-5.938-4.172.893-6.831 4.999-5.938 9.172l23.789 111.188c.776 3.628 3.981 6.111 7.548 6.111.535 0 1.079-.056 1.624-.173 4.172-.893 6.831-4.999 5.938-9.172z"/><path d="m33.184 384.698c-4.172-.894-8.279 1.767-9.172 5.938l-23.789 111.189c-.893 4.173 1.766 8.279 5.938 9.172.545.117 1.089.173 1.624.173 3.566 0 6.771-2.484 7.548-6.111l23.789-111.189c.893-4.173-1.766-8.279-5.938-9.172z"/><path d="m306.926 310.463h-105.169c4.241 12.57 12.855 23.114 24.029 29.834 7.33 4.407 11.961 12.188 11.961 20.741v142.404h31.848v-141.552c0-8.758 4.829-16.693 12.416-21.067 11.607-6.69 20.562-17.461 24.915-30.36z"/></g><path d="m289.557 495.715h-70.432c-4.267 0-7.726 3.459-7.726 7.726s3.459 7.726 7.726 7.726h70.432c4.267 0 7.726-3.459 7.726-7.726s-3.459-7.726-7.726-7.726z" fill="#c7c5c9"/><path d="m114.07 392.253h-101.942c-6.684 0-12.103-5.419-12.103-12.103v-16.546h126.148v16.546c0 6.685-5.419 12.103-12.103 12.103z" fill="#ffc269"/><path d="m14.286 310.466v-87.54c0-14.14 5.614-27.701 15.608-37.703 14.379-14.39 38.793-10.915 47.515 7.463l20.641 35.903-4.148 81.877" fill="#b2e59f"/><path d="m163.38 503.441h-16.428c-3.103 0-5.727-2.294-6.142-5.369l-18.128-134.497h-77.16c-17.251 0-31.236-13.985-31.236-31.236v-21.874h118.122c20.527 0 37.168 16.641 37.168 37.168v149.61c.001 3.424-2.774 6.198-6.196 6.198z" fill="#5d5260"/><path d="m56.168 243.396 35.784 38.421h87.957c0-15.982-11.557-29.619-27.322-32.241l-46.962-7.81-28.217-49.079c-11.24-4.727-23.561-4.973-30.364 1.088-9.894 8.814-9.75 32.424 9.124 49.621z" fill="#95d5a4"/><path d="m71.085 135.103v14.092c0 15.164-12.279 27.443-27.433 27.443-9.179 0-17.296-4.502-22.282-11.414-1.195-1.648-2.205-3.441-3.008-5.346-1.38-3.276-2.153-6.892-2.153-10.683v-14.092c0-15.154 12.29-27.443 27.443-27.443 7.572 0 14.432 3.07 19.398 8.035 2.843 2.843 5.068 6.315 6.438 10.188 1.041 2.874 1.597 5.985 1.597 9.22z" fill="#f7d4ad"/><path d="m69.488 125.883-.608-.113-25.064 10.817c-1.37.587-2.421 1.762-2.843 3.204l-1.02 3.441s-1.968 16.307-16.4 21.345c-.752.258-1.483.474-2.184.649-1.195-1.648-2.205-3.441-3.008-5.346-1.38-3.276-2.153-6.892-2.153-10.683v-14.092c0-15.154 12.29-27.443 27.443-27.443 7.572 0 14.432 3.07 19.398 8.035 2.844 2.841 5.069 6.312 6.439 10.186z" fill="#6e4848"/><circle cx="482.721" cy="108.592" fill="#633c3e" r="15.525"/><path d="m511.802 501.825-23.789-111.188c-.893-4.172-4.998-6.833-9.172-5.938-4.172.893-6.831 4.999-5.938 9.172l23.789 111.188c.776 3.628 3.981 6.111 7.548 6.111.535 0 1.079-.056 1.624-.173 4.172-.893 6.831-4.999 5.938-9.172z" fill="#dad8db"/><path d="m419.62 384.698c-4.175-.894-8.278 1.767-9.172 5.938l-23.788 111.189c-.893 4.173 1.766 8.279 5.938 9.172.545.117 1.089.173 1.624.173 3.566 0 6.771-2.484 7.548-6.111l23.789-111.188c.893-4.174-1.766-8.28-5.939-9.173z" fill="#dad8db"/><path d="m397.955 392.253h101.942c6.684 0 12.103-5.419 12.103-12.103v-16.546h-126.148v16.546c0 6.685 5.419 12.103 12.103 12.103z" fill="#ffc269"/><path d="m0 363.605v12.306h112.947v16.343h1.098c6.684 0 12.103-5.419 12.103-12.103v-16.546z" fill="#ff8b59"/><path d="m385.827 363.605v12.306h112.947v16.343h1.098c6.684 0 12.103-5.419 12.103-12.103v-16.546z" fill="#ff8b59"/><path d="m497.739 310.466v-87.54c0-14.14-5.614-27.701-15.608-37.703-14.379-14.39-38.793-10.915-47.515 7.463l-20.641 35.903 4.148 81.877" fill="#b8b6ff"/><path d="m348.645 503.441h16.428c3.103 0 5.727-2.294 6.142-5.369l18.128-134.497h77.16c17.251 0 31.236-13.985 31.236-31.236v-21.874h-118.123c-20.527 0-37.168 16.641-37.168 37.168v149.61c0 3.424 2.775 6.198 6.197 6.198z" fill="#5d5260"/><path d="m455.857 243.396-35.784 38.421h-87.957c0-15.982 11.557-29.619 27.322-32.241l46.962-7.81 30.147-52.437c2.961-.787 16.267-4.016 24.648 2.991 10.448 8.736 11.229 31.7-5.338 51.076z" fill="#a09eef"/><path d="m489.492 134.794v14.092c0 5.285-1.494 10.219-4.079 14.402-4.821 7.819-13.474 13.042-23.354 13.042-15.154 0-27.443-12.29-27.443-27.443v-14.092c0-2.369.299-4.667.865-6.861v-.01c1.247-4.821 3.76-9.127 7.17-12.537 4.976-4.965 11.836-8.035 19.408-8.035 15.153-.002 27.433 12.278 27.433 27.442z" fill="#f7d4ad"/><path d="m489.492 134.794v14.092c0 5.285-1.494 10.219-4.079 14.402-2.493-.505-5.161-1.452-7.778-3.08-9.725-6.037-18.213-16.977-18.213-16.977l-1.03-3.441c-.422-1.442-1.463-2.617-2.843-3.204l-20.067-8.653v-.01c1.247-4.821 3.76-9.127 7.17-12.537 4.976-4.965 11.836-8.035 19.408-8.035 15.152-.001 27.432 12.279 27.432 27.443z" fill="#6e4848"/></g></svg>