<svg enable-background="new 0 0 512 512" height="200" viewBox="0 0 512 512" width="200" xmlns="http://www.w3.org/2000/svg"><g><path d="m209.587 354.237c97.692 0 176.882-79.2 176.882-176.893 0-97.682-79.19-176.882-176.882-176.882s-176.882 79.2-176.882 176.882h176.882z" fill="#9dc6fb"/><path d="m276.567 415.747h-51.168c-8.662 0-15.684 7.022-15.684 15.684v80.107h82.535v-80.108c.001-8.661-7.021-15.683-15.683-15.683z" fill="#9dc6fb"/><path d="m251.541 415.752c-8.664 0-15.679 7.016-15.679 15.68v80.107h-26.146v-80.107c0-8.664 7.026-15.68 15.68-15.68z" fill="#80b4fb"/><path d="m386.442 213.863h-51.168c-8.662 0-15.684 7.022-15.684 15.684v281.991h82.535v-281.991c0-8.662-7.021-15.684-15.683-15.684z" fill="#f6e266"/><path d="m361.41 213.867c-8.653 0-15.679 7.016-15.679 15.68v281.991h-26.136v-281.992c0-8.664 7.016-15.68 15.679-15.68h26.136z" fill="#ffc250"/><path d="m496.316 330.801h-51.168c-8.662 0-15.684 7.022-15.684 15.684v165.053h82.536v-165.053c0-8.662-7.022-15.684-15.684-15.684z" fill="#dd636e"/><path d="m471.289 330.803c-8.664 0-15.679 7.016-15.679 15.679v165.056h-26.146v-165.056c0-8.663 7.026-15.679 15.69-15.679z" fill="#cb5769"/><path d="m176.882 386.941v-176.892h-176.882c0 97.692 79.19 176.892 176.882 176.892z" fill="#dd636e"/><path d="m98.572 445.804h-88.069c-4.268 0-7.726-3.459-7.726-7.726s3.459-7.726 7.726-7.726h83.125l38.237-82.912c1.787-3.874 6.378-5.568 10.252-3.78 3.875 1.787 5.567 6.377 3.781 10.252l-40.309 87.402c-1.263 2.737-4.002 4.49-7.017 4.49z" fill="#81a7c6"/><path d="m74.692 412.541h-64.189c-4.268 0-7.726-3.459-7.726-7.726s3.459-7.726 7.726-7.726h64.189c4.268 0 7.726 3.459 7.726 7.726.001 4.266-3.458 7.726-7.726 7.726z" fill="#407093"/><path d="m317.73 140.625c-1.281 0-2.578-.319-3.774-.99-3.721-2.088-5.045-6.798-2.957-10.519l51.274-91.369c1.367-2.437 3.944-3.945 6.737-3.945h109.03c4.268 0 7.726 3.459 7.726 7.726s-3.459 7.726-7.726 7.726h-104.505l-49.06 87.424c-1.417 2.526-4.041 3.947-6.745 3.947z" fill="#81a7c6"/><g fill="#407093"><path d="m478.041 18.49h-76.12c-4.268 0-7.726-3.459-7.726-7.726s3.459-7.726 7.726-7.726h76.12c4.268 0 7.726 3.459 7.726 7.726s-3.458 7.726-7.726 7.726z"/><path d="m496.547 181.774h-56.135c-4.268 0-7.726-3.459-7.726-7.726s3.459-7.726 7.726-7.726h56.135c4.268 0 7.726 3.459 7.726 7.726s-3.458 7.726-7.726 7.726z"/><path d="m496.547 215.072h-56.135c-4.268 0-7.726-3.459-7.726-7.726s3.459-7.726 7.726-7.726h56.135c4.268 0 7.726 3.459 7.726 7.726.001 4.267-3.458 7.726-7.726 7.726z"/><path d="m496.547 248.371h-56.135c-4.268 0-7.726-3.459-7.726-7.726s3.459-7.726 7.726-7.726h56.135c4.268 0 7.726 3.459 7.726 7.726s-3.458 7.726-7.726 7.726z"/></g></g></svg>