<svg width="77" height="77" viewBox="0 0 77 77" fill="none" xmlns="http://www.w3.org/2000/svg">
<g clip-path="url(#clip0_6_1619)">
<path d="M56.1682 61.9809L46.1239 63.91L43.5068 54.9082L46.1239 45.9064H48.1593C48.1593 45.9064 56.1682 49.2758 56.1682 61.9809Z" fill="#77718C"/>
<path d="M31.876 45.9064L34.4931 54.9082L31.876 63.91L21.8318 61.9809C21.8318 49.2758 29.8406 45.9064 29.8406 45.9064H31.876Z" fill="#77718C"/>
<path d="M46.124 45.9064V63.91L39 65.4649L31.8761 63.91V45.9064H46.124Z" fill="#EAEAEA"/>
<path d="M34.4931 64.4812L36.6502 51.1128H41.3498L43.5069 64.4812H34.4931Z" fill="#FC5C70"/>
<path d="M36.1281 47.1136V50.9726C36.1281 52.5587 37.4138 53.8445 39 53.8445C40.5862 53.8445 41.8719 52.5588 41.8719 50.9726V47.1136H36.1281Z" fill="#FF6F7F"/>
<path d="M16.1964 31.8548C16.1964 19.2809 26.426 9.05118 39 9.05118C51.5739 9.05118 61.8037 19.2809 61.8037 31.8548H16.1964Z" fill="#77718C"/>
<path d="M24.2794 31.0655C24.2794 20.6876 31.1832 11.9235 40.6481 9.11118C40.1036 9.07206 39.5542 9.05118 39 9.05118C26.426 9.05118 16.1964 19.2809 16.1964 31.8548H24.2945C24.2856 31.5927 24.2794 31.3299 24.2794 31.0655Z" fill="#6A647F"/>
<path d="M57.699 36.7553C60.4055 36.7553 62.5996 34.5613 62.5996 31.8548C62.5996 29.1483 60.4055 26.9542 57.699 26.9542C54.9925 26.9542 52.7985 29.1483 52.7985 31.8548C52.7985 34.5613 54.9925 36.7553 57.699 36.7553Z" fill="#FFBD86"/>
<path d="M51.6157 18.218C50.2168 16.9235 48.2297 16.5015 46.4006 17.0377C44.2003 17.6827 41.6793 18.049 39 18.049C36.3206 18.049 33.7996 17.6826 31.5993 17.0377C29.7702 16.5016 27.7832 16.9235 26.3843 18.218C22.7175 21.6115 20.4216 26.4647 20.4216 31.8548C20.4216 42.1153 28.7394 49.2258 38.9998 49.2258C49.2603 49.2258 57.5781 42.1153 57.5781 31.8548C57.5782 26.4647 55.2824 21.6115 51.6157 18.218Z" fill="#FED2A4"/>
<path d="M53.2455 30.2174C53.2455 33.2337 50.792 35.6885 47.7757 35.6885C44.7594 35.6885 42.306 33.2337 42.306 30.2174C42.306 27.2011 44.7594 24.7476 47.7757 24.7476C50.792 24.7477 53.2455 27.2011 53.2455 30.2174Z" fill="#FFD7B6"/>
<path d="M36.0006 30.2174C36.0006 33.4025 33.4099 35.9946 30.2249 35.9946C27.0399 35.9946 24.4478 33.4025 24.4478 30.2174C24.4478 27.0323 27.0398 24.4417 30.2249 24.4417C33.41 24.4417 36.0006 27.0323 36.0006 30.2174Z" fill="#FFD7B6"/>
<path d="M30.3595 28.7531C29.8595 28.7531 29.4541 29.1585 29.4541 29.6586V31.3189C29.4541 31.8189 29.8595 32.2243 30.3595 32.2243C30.8596 32.2243 31.265 31.8189 31.265 31.3189V29.6586C31.265 29.1585 30.8596 28.7531 30.3595 28.7531Z" fill="#423E4F"/>
<path d="M47.6405 28.7531C47.1403 28.7531 46.735 29.1585 46.735 29.6586V31.3189C46.735 31.8189 47.1403 32.2243 47.6405 32.2243C48.1406 32.2243 48.5459 31.8189 48.5459 31.3189V29.6586C48.5459 29.1585 48.1405 28.7531 47.6405 28.7531Z" fill="#423E4F"/>
<path d="M41.5826 34.1091C41.2053 33.7805 40.6335 33.8198 40.3051 34.1968C39.9756 34.5749 39.5 34.7918 39.0001 34.7918C38.5001 34.7918 38.0245 34.5749 37.6949 34.1968C37.3663 33.8198 36.7945 33.7806 36.4174 34.1091C36.0404 34.4376 36.0011 35.0094 36.3296 35.3865C37.0032 36.1593 37.9764 36.6026 38.9999 36.6026C40.0234 36.6026 40.9966 36.1595 41.6701 35.3865C41.9988 35.0096 41.9595 34.4376 41.5826 34.1091Z" fill="#423E4F"/>
<path d="M31.6769 47.9192C27.1295 43.734 24.2795 37.733 24.2795 31.0656C24.2795 25.7047 26.1221 20.7745 29.2077 16.8724C28.1678 17.0281 27.1807 17.4811 26.3843 18.2182C23.8556 20.5583 21.9793 23.5929 21.058 27.0187C20.8219 26.9769 20.5704 26.9542 20.3009 26.9542C17.5944 26.9542 15.4003 29.1483 15.4003 31.8549C15.4003 34.5614 17.5944 36.7555 20.3009 36.7555C20.5794 36.7555 20.8387 36.731 21.0816 36.6864C22.5833 41.9717 26.53 45.9745 31.6769 47.9192Z" fill="#FFBD86"/>
<path d="M47.7757 23.4087C44.3882 23.4087 41.5717 25.8956 41.0526 29.1383C40.4055 28.8739 39.7077 28.7338 39.0002 28.7338C38.2916 28.7338 37.5938 28.8739 36.9467 29.1383C36.4276 25.8956 33.6111 23.4087 30.2248 23.4087C26.4703 23.4087 23.4147 26.463 23.4147 30.2175C23.4147 33.9721 26.4703 37.0276 30.2248 37.0276C33.6546 37.0276 36.4988 34.4767 36.9648 31.1725C37.5624 30.7656 38.2723 30.5447 39.0002 30.5447C39.727 30.5447 40.4381 30.7656 41.0344 31.1725C41.5004 34.4767 44.3447 37.0276 47.7757 37.0276C51.5302 37.0276 54.5845 33.9721 54.5845 30.2175C54.5845 26.463 51.5302 23.4087 47.7757 23.4087ZM30.2248 35.2167C27.4687 35.2167 25.2256 32.9737 25.2256 30.2175C25.2256 27.4614 27.4687 25.2196 30.2248 25.2196C32.9809 25.2196 35.2228 27.4614 35.2228 30.2175C35.2228 32.9737 32.9809 35.2167 30.2248 35.2167ZM47.7757 35.2167C45.0196 35.2167 42.7777 32.9737 42.7777 30.2175C42.7777 27.4614 45.0196 25.2196 47.7757 25.2196C50.5318 25.2196 52.7737 27.4614 52.7737 30.2175C52.7737 32.9737 50.5318 35.2167 47.7757 35.2167Z" fill="#423E4F"/>
<path d="M48.1764 55.1566C45.7679 55.1566 43.8154 57.1091 43.8154 59.5176C43.8154 60.8778 44.9181 61.9805 46.2783 61.9805L48.1764 63.7252L50.0744 61.9805C51.4346 61.9805 52.5373 60.8778 52.5373 59.5176C52.5373 57.1091 50.5848 55.1566 48.1764 55.1566Z" fill="#FED2A4"/>
<path d="M29.8236 55.1566C32.232 55.1566 34.1845 57.1091 34.1845 59.5176C34.1845 60.8778 33.0818 61.9805 31.7216 61.9805L29.8236 63.7252L27.9255 61.9805C26.5653 61.9805 25.4626 60.8778 25.4626 59.5176C25.4626 57.1091 27.4151 55.1566 29.8236 55.1566Z" fill="#FED2A4"/>
<path d="M65.9401 61.9803H12.0599C10.37 61.9803 9 63.3503 9 65.0402V66.9581C9 68.0575 9.89131 68.9488 10.9907 68.9488H67.0093C68.1087 68.9488 69 68.0575 69 66.9581V65.0402C69 63.3503 67.63 61.9803 65.9401 61.9803Z" fill="#E8A882"/>
<path d="M18.6049 61.9803H12.0599C10.37 61.9803 9 63.3503 9 65.0402V66.9581C9 68.0575 9.89131 68.9488 10.9907 68.9488H21.7825C20.1962 66.962 19.0805 64.5832 18.6049 61.9803Z" fill="#E3986D"/>
</g>
<defs>
<clipPath id="clip0_6_1619">
<rect width="60" height="60" fill="white" transform="translate(9 9)"/>
</clipPath>
</defs>
</svg>
