<svg width="77" height="77" viewBox="0 0 77 77" fill="none" xmlns="http://www.w3.org/2000/svg">
<g clip-path="url(#clip0_6_1656)">
<path d="M31.0812 52.0545L35.5768 61.5819L31.0812 69H20.1714C20.1714 55.0306 29.4504 52.0545 29.4504 52.0545H31.0812Z" fill="#FFA875"/>
<path d="M57.8287 69H46.92L43.7535 62.1837L46.92 52.0545H48.6394C48.6394 52.0545 57.8287 55.0306 57.8287 69Z" fill="#FFA875"/>
<path d="M31.0812 52.0545H46.92V69H31.0812V52.0545Z" fill="#81DDFD"/>
<path d="M14.1008 33.8992C14.1008 20.1697 25.2706 9 39 9C52.7294 9 63.8991 20.1697 63.8991 33.8992H14.1008Z" fill="#827F98"/>
<path d="M18.4484 33.8992H14.1009C14.1009 36.6138 13.6015 38.7698 13.0683 40.2981C12.3625 42.3212 13.1372 44.5656 14.9499 45.7083C17.0067 47.0049 20.114 48.275 24.3949 48.275L18.4484 33.8992Z" fill="#77718C"/>
<path d="M59.5516 33.8992H63.8992C63.8992 36.6138 64.3985 38.7698 64.9317 40.2981C65.6375 42.3212 64.8628 44.5656 63.0501 45.7083C60.9933 47.0049 57.886 48.275 53.6051 48.275L59.5516 33.8992Z" fill="#827F98"/>
<path d="M23.1876 32.8857C23.1876 23.1694 27.9498 14.5665 35.2663 9.27995C23.3017 11.0868 14.1008 21.4385 14.1008 33.899H23.2071C23.1956 33.5624 23.1876 33.225 23.1876 32.8857Z" fill="#77718C"/>
<path d="M59.8 39.0155C62.4884 39.0155 64.6678 36.836 64.6678 34.1476C64.6678 31.4592 62.4884 29.2798 59.8 29.2798C57.1115 29.2798 54.9321 31.4592 54.9321 34.1476C54.9321 36.836 57.1115 39.0155 59.8 39.0155Z" fill="#FFCABD"/>
<path d="M31.0812 52.0545V55.4568C31.0812 57.6436 32.854 59.4162 35.0406 59.4162C37.2274 59.4162 39 57.6435 39 55.4568V52.0545H31.0812Z" fill="white"/>
<path d="M46.919 52.0545V55.4568C46.919 57.6436 45.1463 59.4162 42.9596 59.4162C40.7728 59.4162 39.0002 57.6435 39.0002 55.4568V52.0545H46.919Z" fill="white"/>
<path d="M31.3614 52.6482L31.0812 52.0545H29.4502C29.4502 52.0545 20.1712 55.0307 20.1712 69H22.1576C22.8344 62.3322 26.2965 56.4885 31.3614 52.6482Z" fill="#FF995D"/>
<path d="M59.0963 29.5806C58.6834 27.6525 56.8752 26.3575 54.9182 26.5984C41.7665 28.2168 33.1983 23.5845 28.6852 19.9725C27.1048 18.7077 24.8009 18.9058 23.4741 20.4344C20.3436 24.0408 18.4485 28.7485 18.4485 33.8989C18.4485 45.2387 27.9034 54.5802 39.2425 54.4492C50.4812 54.3193 59.5517 45.1684 59.5517 33.899C59.5517 32.4176 59.3945 30.973 59.0963 29.5806Z" fill="#FFDCCE"/>
<path d="M31.1129 52.8465C26.2 47.6354 23.1877 40.6126 23.1877 32.8857C23.1877 27.9198 24.4326 23.2454 26.6254 19.1549C25.469 19.0609 24.2878 19.497 23.474 20.4345C21.2962 22.9434 19.7173 25.9856 18.9574 29.3387C18.7105 29.3002 18.4577 29.2798 18.2001 29.2798C15.5117 29.2798 13.3322 31.4592 13.3322 34.1476C13.3322 36.836 15.5117 39.0155 18.2001 39.0155C18.5025 39.0155 18.7979 38.9865 19.085 38.9337C20.6969 45.2007 25.2345 50.3597 31.1129 52.8465Z" fill="#FFCABD"/>
<path d="M26.8339 41.6105C29.3131 41.6105 31.3229 40.01 31.3229 38.0356C31.3229 36.0613 29.3131 34.4608 26.8339 34.4608C24.3546 34.4608 22.3448 36.0613 22.3448 38.0356C22.3448 40.01 24.3546 41.6105 26.8339 41.6105Z" fill="#FFA0AB"/>
<path d="M51.1661 41.6105C53.6453 41.6105 55.6551 40.01 55.6551 38.0356C55.6551 36.0613 53.6453 34.4608 51.1661 34.4608C48.6869 34.4608 46.6771 36.0613 46.6771 38.0356C46.6771 40.01 48.6869 41.6105 51.1661 41.6105Z" fill="#FFA0AB"/>
<path d="M29.4501 35.4998C28.9501 35.4998 28.5447 35.0944 28.5447 34.5944V32.7593C28.5447 32.2592 28.9501 31.8538 29.4501 31.8538C29.9502 31.8538 30.3555 32.2592 30.3555 32.7593V34.5944C30.3555 35.0944 29.9502 35.4998 29.4501 35.4998Z" fill="#423E4F"/>
<path d="M48.5499 35.4998C48.0497 35.4998 47.6445 35.0944 47.6445 34.5944V32.7593C47.6445 32.2592 48.0497 31.8538 48.5499 31.8538C49.0501 31.8538 49.4553 32.2592 49.4553 32.7593V34.5944C49.4553 35.0944 49.0501 35.4998 48.5499 35.4998Z" fill="#423E4F"/>
<path d="M39 36.5923C37.7734 36.5923 36.6068 36.061 35.7996 35.1346C35.471 34.7576 35.5104 34.1858 35.8875 33.8571C36.2644 33.5287 36.8364 33.5679 37.1649 33.9449C37.6281 34.4765 38.2969 34.7813 39 34.7813C39.703 34.7813 40.3718 34.4763 40.8352 33.9448C41.1639 33.5678 41.7356 33.5285 42.1127 33.8571C42.4897 34.1856 42.5289 34.7576 42.2004 35.1346C41.393 36.061 40.2266 36.5923 39 36.5923Z" fill="#423E4F"/>
<path d="M24.7328 69V63.0891C24.7328 62.589 25.1382 62.1836 25.6382 62.1836C26.1383 62.1836 26.5437 62.589 26.5437 63.0891V69H24.7328Z" fill="#FF995D"/>
<path d="M51.4567 69V63.0891C51.4567 62.589 51.862 62.1836 52.3622 62.1836C52.8623 62.1836 53.2676 62.589 53.2676 63.0891V69H51.4567Z" fill="#FF995D"/>
<path d="M39 62.8159C39.4839 62.8159 39.8762 62.4236 39.8762 61.9397C39.8762 61.4557 39.4839 61.0634 39 61.0634C38.5161 61.0634 38.1238 61.4557 38.1238 61.9397C38.1238 62.4236 38.5161 62.8159 39 62.8159Z" fill="white"/>
<path d="M39 66.4435C39.4839 66.4435 39.8762 66.0512 39.8762 65.5673C39.8762 65.0834 39.4839 64.6911 39 64.6911C38.5161 64.6911 38.1238 65.0834 38.1238 65.5673C38.1238 66.0512 38.5161 66.4435 39 66.4435Z" fill="white"/>
</g>
<defs>
<clipPath id="clip0_6_1656">
<rect width="60" height="60" fill="white" transform="translate(9 9)"/>
</clipPath>
</defs>
</svg>
